<svg width="481" height="359" viewBox="0 0 481 359" fill="none" xmlns="http://www.w3.org/2000/svg">
<path d="M237.877 354.391L18.1716 224.399C11.1769 220.461 5.18145 214.01 11.9968 209.777L232.484 82.5554C235.789 80.5032 240.811 79.1564 244.18 81.1188L474.775 215.126C481.769 219.192 483.025 230.517 476.056 234.621L266.829 354.186C257.894 359.376 246.885 359.454 237.877 354.391Z" fill="#5B36A0"/>
<path d="M237.877 348.391L18.1716 218.399C11.1769 214.461 5.18145 208.01 11.9968 203.777L232.484 76.5554C235.789 74.5032 240.811 73.1564 244.18 75.1188L474.775 209.126C481.769 213.192 483.025 224.517 476.056 228.621L266.829 348.186C257.894 353.376 246.885 353.454 237.877 348.391Z" fill="#6862E6"/>
<g style="mix-blend-mode:multiply" opacity="0.25">
<path d="M255.992 176.881L212.64 201.648C212.64 201.648 279.422 242.448 293.079 248.194L318.047 212.281" fill="url(#paint0_linear_40_3)"/>
</g>
<g style="mix-blend-mode:multiply" opacity="0.25">
<path d="M241.016 295.702L197.651 270.986L154.286 295.753C154.286 295.753 176.872 309.554 198.458 322.226C212.166 312.517 225.886 302.705 241.016 295.702Z" fill="url(#paint1_linear_40_3)"/>
</g>
<g style="mix-blend-mode:multiply" opacity="0.46">
<path d="M147.586 143.071L120.082 158.783C120.082 158.783 122.413 173.187 136.07 178.933L172.081 155.846" fill="url(#paint2_linear_40_3)"/>
</g>
<ellipse cx="161.051" cy="147.086" rx="16.59" ry="11.6974" fill="#68E1FD"/>
<ellipse cx="161.038" cy="140.186" rx="12.4265" ry="5.09196" fill="#974C26"/>
<path fill-rule="evenodd" clip-rule="evenodd" d="M160.333 124.807C160.513 127.103 160.589 129.399 160.589 131.695C160.577 134.568 160.436 137.441 160.128 140.301C159.142 138.929 158.168 137.492 157.143 135.876C155.824 133.811 154.594 131.695 153.467 129.527C152.418 127.6 151.523 125.592 150.789 123.524C149.973 121.278 149.318 118.977 148.829 116.637C148.701 116.073 148.586 115.406 148.483 114.79V114.572V114.033C148.381 112.828 148.278 111.545 148.278 110.262C148.221 105.9 149.063 101.573 150.751 97.5517C155.236 104.065 158.26 111.472 159.616 119.266C159.701 119.728 159.782 120.194 159.859 120.664C159.859 120.574 160.039 121.511 160.039 121.857L160.167 123.024C160.226 123.614 160.282 124.209 160.333 124.807ZM154.069 105.875C154.069 105.875 154.069 105.876 154.069 105.876H154.056C154.06 105.876 154.065 105.875 154.069 105.875ZM154.069 105.875C154.384 105.857 154.7 105.892 155.004 105.978C154.696 105.636 154.385 105.303 154.069 104.978C154.134 105.273 154.134 105.58 154.069 105.875Z" fill="#999A1C"/>
<path fill-rule="evenodd" clip-rule="evenodd" d="M168.353 127.526C167.264 129.617 166.136 131.528 164.855 133.465C163.305 135.889 161.589 138.223 159.885 140.493C159.77 138.813 159.77 137.069 159.77 135.158C159.77 132.708 159.872 130.271 160.103 127.834C160.261 125.644 160.591 123.47 161.089 121.331C161.612 118.998 162.302 116.704 163.152 114.469C163.382 113.879 163.626 113.302 163.869 112.725L163.869 112.725L163.933 112.52L164.189 112.045C164.766 110.929 165.381 109.826 166.047 108.762C168.36 105.056 171.413 101.868 175.014 99.3986C175.274 107.312 173.819 115.189 170.748 122.486C170.569 122.905 170.385 123.332 170.198 123.768L169.698 124.871L169.173 125.936C168.908 126.466 168.635 126.996 168.353 127.526ZM173.746 107.428C173.66 107.717 173.511 107.984 173.311 108.21C173.56 108.342 173.789 108.511 173.99 108.71C173.921 108.3 173.84 107.872 173.746 107.428Z" fill="#999A1C"/>
<path fill-rule="evenodd" clip-rule="evenodd" d="M168.609 137.107C167.336 137.851 166.055 138.544 164.766 139.185C163.152 139.993 161.499 140.711 159.846 141.404C160.333 140.468 160.884 139.506 161.499 138.48C162.306 137.197 163.152 135.914 164.061 134.632C164.852 133.5 165.73 132.432 166.687 131.438C167.724 130.347 168.837 129.331 170.018 128.398L170.966 127.693L171.069 127.603L171.363 127.424C172.042 127.013 172.721 126.616 173.426 126.256C175.863 125.002 178.532 124.265 181.266 124.089C178.856 128.438 175.535 132.214 171.53 135.158L170.812 135.684L170.198 136.12L169.57 136.517L168.609 137.107ZM177.961 128.001C177.821 128.13 177.655 128.226 177.474 128.283V128.296C177.559 128.457 177.62 128.63 177.653 128.809C177.764 128.544 177.867 128.274 177.961 128.001Z" fill="#999A1C"/>
<path fill-rule="evenodd" clip-rule="evenodd" d="M160.333 124.807C160.513 127.103 160.589 129.399 160.589 131.695C160.577 134.568 160.436 137.441 160.128 140.301C159.142 138.929 158.168 137.492 157.143 135.876C155.824 133.811 154.594 131.695 153.467 129.527C152.418 127.6 151.523 125.592 150.789 123.524C149.973 121.278 149.318 118.977 148.829 116.637C148.701 116.073 148.586 115.406 148.483 114.79V114.572V114.033C148.381 112.828 148.278 111.545 148.278 110.262C148.221 105.9 149.063 101.573 150.751 97.5517C155.236 104.065 158.26 111.472 159.616 119.266C159.701 119.728 159.782 120.194 159.859 120.664C159.859 120.574 160.039 121.511 160.039 121.857L160.167 123.024C160.226 123.614 160.282 124.209 160.333 124.807ZM154.069 105.875C154.069 105.875 154.069 105.876 154.069 105.876H154.056C154.06 105.876 154.065 105.875 154.069 105.875ZM154.069 105.875C154.384 105.857 154.7 105.892 155.004 105.978C154.696 105.636 154.385 105.303 154.069 104.978C154.134 105.273 154.134 105.58 154.069 105.875Z" fill="#999A1C"/>
<path fill-rule="evenodd" clip-rule="evenodd" d="M168.353 127.526C167.264 129.617 166.136 131.528 164.855 133.465C163.305 135.889 161.589 138.223 159.885 140.493C159.77 138.813 159.77 137.069 159.77 135.158C159.77 132.708 159.872 130.271 160.103 127.834C160.261 125.644 160.591 123.47 161.089 121.331C161.612 118.998 162.302 116.704 163.152 114.469C163.382 113.879 163.626 113.302 163.869 112.725L163.869 112.725L163.933 112.52L164.189 112.045C164.766 110.929 165.381 109.826 166.047 108.762C168.36 105.056 171.413 101.868 175.014 99.3986C175.274 107.312 173.819 115.189 170.748 122.486C170.569 122.905 170.385 123.332 170.198 123.768L169.698 124.871L169.173 125.936C168.908 126.466 168.635 126.996 168.353 127.526ZM173.746 107.428C173.66 107.717 173.511 107.984 173.311 108.21C173.56 108.342 173.789 108.511 173.99 108.71C173.921 108.3 173.84 107.872 173.746 107.428Z" fill="#999A1C"/>
<path fill-rule="evenodd" clip-rule="evenodd" d="M168.609 137.107C167.336 137.851 166.055 138.544 164.766 139.185C163.152 139.993 161.499 140.711 159.846 141.404C160.333 140.468 160.884 139.506 161.499 138.48C162.306 137.197 163.152 135.914 164.061 134.632C164.852 133.5 165.73 132.432 166.687 131.438C167.724 130.347 168.837 129.331 170.018 128.398L170.966 127.693L171.069 127.603L171.363 127.424C172.042 127.013 172.721 126.616 173.426 126.256C175.863 125.002 178.532 124.265 181.266 124.089C178.856 128.438 175.535 132.214 171.53 135.158L170.812 135.684L170.198 136.12L169.57 136.517L168.609 137.107ZM177.961 128.001C177.821 128.13 177.655 128.226 177.474 128.283V128.296C177.559 128.457 177.62 128.63 177.653 128.809C177.764 128.544 177.867 128.274 177.961 128.001Z" fill="#999A1C"/>
<path d="M273.209 167.21L249.215 178.754C247.372 179.64 246.17 181.473 246.09 183.518C246.009 185.563 247.063 187.485 248.83 188.514L305.697 221.734C308.251 223.228 311.528 222.442 313.128 219.951L326.951 198.429" fill="#A1482D"/>
<path d="M403.713 111.532L212.384 1.15079C209.712 -0.387234 206.425 -0.383345 203.757 1.16099C201.089 2.70533 199.446 5.55602 199.445 8.64123V123.473C199.444 126.039 200.812 128.411 203.032 129.694L407.005 247.578C408.437 248.409 410.204 248.411 411.637 247.582C413.07 246.753 413.952 245.221 413.949 243.564V129.206C413.943 121.905 410.039 115.164 403.713 111.532Z" fill="#F47B56"/>
<path d="M212.396 9.83406L397.948 116.714C401.981 119.039 404.467 123.342 404.469 128.001V214.077C404.466 215.753 403.572 217.301 402.124 218.141C400.675 218.981 398.889 218.987 397.436 218.155L208.207 109.493C206.765 108.665 205.876 107.129 205.876 105.465V13.6178C205.876 12.0625 206.703 10.6249 208.047 9.84506C209.391 9.06518 211.048 9.06099 212.396 9.83406Z" fill="white"/>
<ellipse cx="289.597" cy="167.654" rx="4.03558" ry="4.61719" transform="rotate(-10.9 289.597 167.654)" fill="#AB643C"/>
<path opacity="0.32" d="M262.269 126.616L348.498 178.484L391.094 153.691L314.985 109.339" fill="url(#paint3_linear_40_3)"/>
<path d="M368.829 116.291L275.605 59.3812C274.589 58.7928 273.333 58.8031 272.327 59.4083C271.32 60.0135 270.721 61.118 270.762 62.2928V94.7171C270.754 95.9102 271.372 97.0201 272.389 97.6415L365.601 153.345C366.598 153.912 367.821 153.905 368.811 153.326C369.801 152.747 370.408 151.684 370.405 150.536L370.892 120.305C370.964 118.695 370.179 117.168 368.829 116.291Z" fill="#E2AC00"/>
<path d="M346.526 132.977C349.869 137.659 355.749 138.967 359.644 135.914C363.538 132.862 363.987 126.59 360.643 121.921C357.299 117.253 351.419 115.931 347.525 118.984C343.63 122.037 343.182 128.296 346.526 132.977Z" fill="white"/>
<path d="M337.379 110.506L299.356 87.5858C298.679 87.2686 297.873 87.5191 297.494 88.1641C297.116 88.8091 297.29 89.6366 297.896 90.0741L335.918 112.994C336.595 113.311 337.402 113.061 337.78 112.416C338.159 111.771 337.985 110.944 337.379 110.506Z" fill="#F2F2F2"/>
<path d="M335.816 119.818L283.407 88.2271C282.744 87.9952 282.011 88.2726 281.667 88.8853C281.323 89.498 281.468 90.2694 282.01 90.7154L334.355 122.319C335.032 122.636 335.839 122.386 336.217 121.741C336.596 121.096 336.422 120.268 335.816 119.831V119.818Z" fill="#F2F2F2"/>
<path d="M350.228 122.575L257.055 65.6788C256.038 65.0904 254.783 65.1008 253.777 65.7059C252.77 66.3111 252.171 67.4156 252.212 68.5904V101.002C252.197 102.197 252.81 103.312 253.826 103.939L347.038 159.643C348.046 160.223 349.288 160.213 350.286 159.617C351.285 159.022 351.884 157.933 351.855 156.77L352.342 126.539C352.385 124.937 351.582 123.43 350.228 122.575Z" fill="#F47B56"/>
<path d="M327.924 139.262C331.268 143.944 337.148 145.252 341.042 142.199C344.937 139.147 345.385 132.875 342.042 128.206C338.698 123.537 332.818 122.216 328.923 125.269C325.029 128.321 324.581 134.581 327.924 139.262Z" fill="white"/>
<path d="M318.777 116.791L280.729 93.8706C280.052 93.5534 279.246 93.8039 278.867 94.4489C278.489 95.0939 278.663 95.9214 279.269 96.3588L317.291 119.279C317.968 119.596 318.775 119.346 319.153 118.701C319.532 118.056 319.358 117.228 318.752 116.791H318.777Z" fill="#F2F2F2"/>
<path d="M317.202 126.167L264.805 94.5247C264.129 94.2075 263.322 94.458 262.943 95.103C262.565 95.748 262.739 96.5755 263.345 97.013L315.754 128.604C316.431 128.921 317.237 128.67 317.616 128.025C317.994 127.38 317.82 126.553 317.214 126.115L317.202 126.167Z" fill="#F2F2F2"/>
<path d="M326.848 126.398L233.649 69.501C232.633 68.9126 231.378 68.9229 230.371 69.5281C229.365 70.1333 228.766 71.2378 228.807 72.4125V104.824C228.799 106.017 229.417 107.127 230.434 107.748L323.645 163.452C324.653 164.032 325.895 164.022 326.894 163.427C327.892 162.831 328.492 161.742 328.462 160.579L328.949 130.348C328.991 128.753 328.193 127.253 326.848 126.398Z" fill="#68E1FD"/>
<path d="M326.848 126.398L233.649 69.501C232.633 68.9126 231.378 68.9229 230.371 69.5281C229.365 70.1333 228.766 71.2378 228.807 72.4125V104.824C228.799 106.017 229.417 107.127 230.434 107.748L323.645 163.452C324.653 164.032 325.895 164.022 326.894 163.427C327.892 162.831 328.492 161.742 328.462 160.579L328.949 130.348C328.991 128.753 328.193 127.253 326.848 126.398Z" fill="#68E1FD"/>
<path d="M304.532 143.084C307.875 147.766 313.755 149.074 317.65 146.021C321.544 142.969 321.993 136.697 318.649 132.028C315.306 127.359 309.425 126.038 305.531 129.091C301.636 132.144 301.226 138.403 304.532 143.084Z" fill="white"/>
<path d="M295.385 120.613L257.349 97.6928C256.673 97.3755 255.866 97.6261 255.488 98.2711C255.109 98.9161 255.283 99.7435 255.889 100.181L293.912 123.101C294.588 123.418 295.395 123.168 295.773 122.523C296.152 121.878 295.978 121.05 295.372 120.613H295.385Z" fill="#F2F2F2"/>
<path d="M293.809 129.938L241.4 98.3469C240.723 98.0296 239.917 98.2802 239.538 98.9252C239.159 99.5702 239.333 100.398 239.94 100.835L292.349 132.426C293.025 132.743 293.832 132.492 294.211 131.847C294.589 131.202 294.415 130.375 293.809 129.938Z" fill="#F2F2F2"/>
<path d="M204.53 123.217C198.508 128.407 193.953 135.09 191.323 142.597C186.685 155.423 198.279 176.381 198.279 176.381L216.316 162.08" fill="#FF8F6F"/>
<path d="M202.583 292.79L197.69 290.084L198.971 283.081C198.971 283.081 206.26 283.774 206.9 286.364" fill="#003B94"/>
<path d="M204.377 292.688C205.478 292.008 206.631 291.405 207.772 290.802C210.603 289.25 214.689 287.647 216.432 284.736C217.163 283.53 217.071 281.997 216.201 280.888C213.639 277.784 208.028 282.889 205.158 279.451C204.595 278.771 204.326 267.985 204.326 267.985L193.411 270.935C193.411 270.935 191.566 292.611 191.771 293.945C191.976 295.279 195.729 296.51 195.729 296.51C196.847 296.272 197.914 295.838 198.881 295.227C200.021 294.394 198.983 284.223 200.444 285.646C201.904 287.07 202.545 292.636 202.545 292.636C203.151 292.728 203.766 292.746 204.377 292.688Z" fill="#F47B56"/>
<path d="M223.426 303.269L218.533 300.601L219.814 293.598C219.814 293.598 227.103 294.291 227.744 296.882" fill="#003B94"/>
<path d="M225.271 303.167C226.373 302.487 227.526 301.884 228.666 301.281C231.497 299.729 235.584 298.126 237.326 295.214C238.057 294.009 237.965 292.476 237.096 291.367C234.533 288.263 228.922 293.368 226.053 289.93C225.489 289.25 225.22 278.464 225.22 278.464L214.305 281.414C214.305 281.414 212.448 303.167 212.653 304.449C212.858 305.732 216.611 307.014 216.611 307.014C217.729 306.777 218.796 306.342 219.763 305.732C220.903 304.898 219.865 294.727 221.325 296.151C222.786 297.574 223.426 303.141 223.426 303.141C224.038 303.225 224.658 303.234 225.271 303.167Z" fill="#F47B56"/>
<path d="M187.864 232.803L184.648 275.86C184.648 275.86 189.772 282.94 206.952 279.002L207.118 249.977" fill="#3E2928"/>
<path d="M207.708 241.332C207.336 245.039 207.708 285.928 207.708 285.928C207.708 285.928 212.46 294.83 233.15 285.928L232.855 251.183" fill="#3E2928"/>
<path d="M186.262 247.027C187.671 248.002 188.158 242.987 189.632 243.846C194.991 246.963 200.68 249.475 206.593 251.336H206.721C207.006 251.198 207.334 251.181 207.631 251.29C207.929 251.399 208.169 251.624 208.297 251.914C211.95 253.005 215.668 253.862 219.429 254.479C224.259 255.248 228.256 251.67 233.214 251.426C233.214 232.418 233.304 178.318 225.22 166.774L201.302 158.719C201.187 160.694 189.696 174.034 189.977 190.297C190.298 208.626 187.915 225.915 187.505 231.648C187.441 232.623 186.314 245.988 186.262 247.027Z" fill="#3E2928"/>
<path d="M227.423 144.918L225.22 166.723C225.22 166.723 207.374 167.441 199.688 162.131V143.636" fill="#FF8F6F"/>
<path d="M250.111 130.566L248.292 133.054C249.262 131.03 250.118 128.954 250.854 126.834C251.367 125.384 249.048 124.807 248.536 126.256L248.267 127C248.489 126.231 248.698 125.457 248.894 124.679C249.054 124.038 248.663 123.389 248.023 123.229C247.383 123.07 246.735 123.461 246.576 124.102C246.073 126.114 245.47 128.101 244.769 130.053C245.161 128.32 245.443 126.563 245.615 124.794C245.768 123.268 243.373 123.332 243.232 124.794C243.033 126.808 242.673 128.802 242.156 130.758C242.156 130.074 242.092 129.39 241.964 128.706C241.928 128.361 241.746 128.048 241.464 127.847C241.4 127.578 241.323 127.321 241.233 127.052C241.046 126.498 240.488 126.158 239.911 126.247C239.333 126.335 238.903 126.826 238.889 127.411L238.735 136.389C238.301 137.32 237.736 138.184 237.057 138.954C238.21 139.753 239.322 140.609 240.388 141.519C241.339 142.325 242.246 143.181 243.104 144.085C243.872 143.127 244.611 142.152 245.32 141.16C245.408 141.086 245.486 140.999 245.551 140.904C247.686 137.74 249.889 134.628 252.161 131.566C253.109 130.515 251.021 129.348 250.111 130.566Z" fill="#FFB5A9"/>
<path d="M216.099 125.038C216.099 125.038 224.528 127.308 227.949 132.734C230.091 136.489 231.978 140.384 233.598 144.393L239.824 134.709C239.824 134.709 247.383 137.03 250.38 140.75C250.38 140.75 241.413 160.374 233.598 162.054C225.784 163.734 217.482 150.536 217.482 150.536C217.482 150.536 215.766 156.051 216.099 150.164" fill="#FF8F6F"/>
<path d="M221.454 146.009C219.003 144.013 217.154 141.375 216.111 138.39C215.099 134.94 216.368 131.913 217.546 128.706C218.822 125.528 219.567 122.161 219.75 118.74C219.852 115.38 219.468 112.019 219.237 108.672C219.204 108.528 219.204 108.379 219.237 108.236C218.11 104.452 215.804 101.246 211.256 100.861C199.483 99.8604 198.817 112.917 198.907 118.227C198.996 123.537 199.56 127.129 195.653 129.348C191.745 131.566 188.927 137.389 192.655 142.097C196.383 146.804 193.039 145.085 190.554 149.266C188.069 153.448 188.709 158.668 193.808 160.553C198.907 162.439 222.607 158.899 224.784 156.706C225.557 155.822 225.957 154.672 225.899 153.499C225.367 150.547 223.789 147.887 221.454 146.009Z" fill="#007F68"/>
<path fill-rule="evenodd" clip-rule="evenodd" d="M236.365 48.0686C236.184 44.5721 235.03 41.1959 233.035 38.3208C231.259 35.4476 228.636 33.1976 225.527 31.8821C223.935 31.171 222.136 31.0795 220.48 31.6256C218.9 32.1855 217.597 33.3341 216.842 34.8321C215.932 36.6177 215.525 38.6172 215.663 40.6167C215.774 42.9951 216.33 45.3315 217.303 47.5043C218.274 49.7793 219.616 51.8771 221.274 53.7121C222.673 55.3436 224.426 56.6334 226.399 57.483C227.093 57.7605 227.821 57.9459 228.564 58.0345C229.129 58.1105 229.702 58.1105 230.267 58.0345C230.709 57.9733 231.14 57.8525 231.548 57.6754C231.808 57.573 232.061 57.453 232.304 57.3162L232.561 57.1367L231.01 54.2508L230.498 54.533C229.977 54.7737 229.405 54.8796 228.833 54.8408C227.953 54.8501 227.082 54.6799 226.27 54.3406C223.939 53.2704 222.019 51.4695 220.8 49.2101C219.27 46.9227 218.384 44.2639 218.238 41.5145C217.991 39.3282 218.75 37.1482 220.301 35.5888C221.77 34.2892 223.882 34.0197 225.63 34.9091C227.983 35.8882 229.969 37.5845 231.305 39.7573C232.792 41.8929 233.649 44.4041 233.778 47.0041C233.872 49.6291 233.299 50.698 232.061 50.2106C231.62 50.0194 231.251 49.6911 231.01 49.2743C230.726 48.8428 230.567 48.3413 230.549 47.8249L230.293 40.6167L227.731 39.6162V40.7578L227.5 40.3473C227.237 39.9718 226.927 39.6313 226.578 39.3341C226.168 38.9621 225.695 38.6667 225.182 38.4619C224.145 37.9515 222.9 38.1464 222.068 38.9493C221.123 39.9929 220.687 41.4013 220.877 42.7971C220.931 44.5211 221.444 46.1992 222.363 47.6582C223.126 49.0009 224.304 50.0588 225.72 50.6723C226.313 50.9414 226.975 51.0219 227.616 50.9032C227.999 50.8469 228.36 50.6922 228.666 50.4543C228.786 50.3224 228.89 50.1759 228.974 50.0182L229.281 50.621C229.577 51.1394 229.948 51.6106 230.383 52.0191C230.867 52.5216 231.452 52.9151 232.099 53.1734C233.16 53.7387 234.468 53.5116 235.276 52.6219C236.2 51.2958 236.588 49.6695 236.365 48.0686ZM227.91 45.5419C227.994 46.2194 227.805 46.9026 227.385 47.4401C226.992 47.8307 226.392 47.9239 225.899 47.671C225.212 47.3734 224.641 46.8601 224.272 46.2088C223.823 45.492 223.571 44.669 223.542 43.8232C223.452 43.1508 223.658 42.4727 224.105 41.9634C224.537 41.5733 225.164 41.4916 225.681 41.7582C226.339 42.0445 226.884 42.5406 227.231 43.1691C227.656 43.889 227.89 44.7059 227.91 45.5419Z" fill="#F47B56"/>
<path fill-rule="evenodd" clip-rule="evenodd" d="M387.623 186.949C387.444 183.452 386.291 180.075 384.292 177.202C382.58 174.296 380.011 171.993 376.938 170.609C375.341 169.903 373.539 169.812 371.878 170.353C370.299 170.92 368.997 172.072 368.24 173.572C367.33 175.353 366.922 177.348 367.061 179.344C367.171 181.722 367.728 184.059 368.701 186.231C369.672 188.51 371.014 190.612 372.672 192.452C374.073 194.079 375.825 195.364 377.797 196.21C378.487 196.491 379.21 196.681 379.949 196.774C380.519 196.85 381.096 196.85 381.666 196.774C382.105 196.706 382.535 196.585 382.947 196.415C383.206 196.313 383.459 196.193 383.702 196.056L383.959 195.876L382.409 192.991L381.896 193.273C381.374 193.508 380.803 193.614 380.231 193.581C379.351 193.58 378.481 193.406 377.669 193.068C375.341 192.049 373.401 190.309 372.134 188.104C370.601 185.818 369.716 183.158 369.572 180.408C369.3 178.217 370.041 176.022 371.583 174.444C373.057 173.152 375.167 172.888 376.913 173.777C379.259 174.757 381.239 176.448 382.575 178.613C384.061 180.753 384.918 183.268 385.048 185.872C385.124 188.501 384.599 189.566 383.318 189.079C382.877 188.887 382.508 188.559 382.268 188.142C381.988 187.709 381.829 187.208 381.806 186.693L381.55 179.485L378.988 178.497V179.639L378.745 179.228C378.481 178.849 378.171 178.504 377.822 178.202C377.413 177.829 376.94 177.534 376.426 177.33C375.393 176.822 374.153 177.017 373.326 177.817C372.374 178.857 371.937 180.269 372.134 181.665C372.188 183.395 372.706 185.078 373.633 186.539C374.394 187.887 375.572 188.949 376.99 189.566C377.579 189.835 378.238 189.912 378.873 189.784C379.257 189.731 379.619 189.576 379.923 189.335C380.041 189.201 380.144 189.055 380.231 188.899L380.538 189.502C380.836 190.018 381.208 190.489 381.64 190.9C382.126 191.399 382.711 191.792 383.357 192.054C384.418 192.615 385.723 192.388 386.534 191.503C387.457 190.177 387.846 188.55 387.623 186.949ZM379.18 184.423C379.261 185.102 379.067 185.785 378.642 186.321C378.246 186.707 377.647 186.795 377.156 186.539C376.469 186.236 375.898 185.719 375.529 185.064C375.08 184.352 374.828 183.533 374.799 182.691C374.71 182.017 374.92 181.337 375.375 180.831C375.81 180.446 376.437 180.369 376.951 180.639C377.606 180.924 378.148 181.421 378.488 182.05C378.919 182.768 379.158 183.585 379.18 184.423Z" fill="#F47B56"/>
<g style="mix-blend-mode:multiply" opacity="0.25">
<path d="M128.998 231.892L85.6333 207.189L42.2816 231.943C42.2816 231.943 66.4043 247.027 87.9905 259.699C101.698 250.003 113.881 238.908 128.998 231.892Z" fill="url(#paint4_linear_40_3)"/>
</g>
<g filter="url(#filter0_d_40_3)">
<path fill-rule="evenodd" clip-rule="evenodd" d="M50.7894 163.069V216.939L92.7576 240.975L140.145 212.95V159.08" fill="#FF9271"/>
</g>
<path d="M92.7576 187.105V240.975L140.145 212.95V159.08L92.7576 187.105Z" fill="#DF5C34"/>
<path d="M50.7894 163.069L99.4833 135.313L140.145 159.08L92.7576 187.105L50.7894 163.069Z" fill="#F47B56"/>
<path fill-rule="evenodd" clip-rule="evenodd" d="M108.079 150.807C103.738 148.43 98.809 147.344 93.8722 147.678C88.6924 147.769 83.6317 149.248 79.2166 151.962C76.901 153.28 75.0588 155.295 73.9513 157.721C73.0281 159.821 73.0281 162.213 73.9513 164.313C75.0694 166.696 76.9309 168.649 79.255 169.88C82.1349 171.508 85.3096 172.545 88.5941 172.932C92.2076 173.433 95.8769 173.368 99.4705 172.74C102.768 172.238 105.936 171.097 108.797 169.379C109.79 168.772 110.713 168.059 111.551 167.25C112.187 166.648 112.754 165.977 113.242 165.249C113.58 164.71 113.855 164.133 114.062 163.531C114.205 163.155 114.321 162.769 114.408 162.376C114.416 162.231 114.416 162.086 114.408 161.94L109.655 161.671L109.476 162.479C109.218 163.293 108.78 164.038 108.195 164.659C107.32 165.675 106.286 166.542 105.133 167.225C101.801 169.2 97.9874 170.213 94.1156 170.149C90.2266 170.314 86.3684 169.394 82.9702 167.494C79.8571 165.66 78.2558 163.377 78.2558 160.812C78.2302 158.195 79.729 155.942 82.7524 154.052C86.0746 152.026 89.8799 150.932 93.7697 150.884C97.44 150.643 101.103 151.457 104.326 153.231C107.358 155.027 107.99 156.476 106.222 157.579C104.926 158.277 103.367 158.277 102.071 157.579L93.7312 152.667L90.1314 154.912L91.4125 155.681H90.7079C90.0181 155.72 89.3348 155.836 88.671 156.028C87.8385 156.244 87.0437 156.586 86.3138 157.041C84.7624 157.777 83.7675 159.336 83.7516 161.055C83.8285 162.646 84.8533 164.031 86.8518 165.211C88.9653 166.426 91.3721 167.034 93.8081 166.968C96.1625 167.014 98.483 166.401 100.508 165.198C101.377 164.706 102.101 163.994 102.609 163.133C102.914 162.67 103.091 162.135 103.122 161.581C103.093 161.347 103.033 161.119 102.942 160.901L103.916 160.978C104.808 161.005 105.699 160.914 106.568 160.709C107.624 160.495 108.635 160.096 109.553 159.529C111.487 158.362 112.307 156.977 112.115 155.386C111.923 153.796 110.565 152.269 108.079 150.807ZM96.9339 158.939C97.7652 159.3 98.3646 160.049 98.5353 160.94H98.5865C98.5997 161.76 98.1271 162.51 97.3823 162.851C96.3983 163.433 95.2708 163.726 94.1284 163.698C92.9398 163.725 91.7662 163.428 90.7335 162.838C89.9125 162.478 89.3392 161.714 89.2218 160.824C89.2411 159.97 89.7355 159.198 90.5029 158.824C91.4376 158.264 92.5146 157.987 93.6031 158.028C94.7745 158.03 95.9243 158.344 96.9339 158.939Z" fill="#3E2928"/>
<defs>
<filter id="filter0_d_40_3" x="0.789398" y="134.08" width="189.355" height="181.895" filterUnits="userSpaceOnUse" color-interpolation-filters="sRGB">
<feFlood flood-opacity="0" result="BackgroundImageFix"/>
<feColorMatrix in="SourceAlpha" type="matrix" values="0 0 0 0 0 0 0 0 0 0 0 0 0 0 0 0 0 0 127 0" result="hardAlpha"/>
<feOffset dy="25"/>
<feGaussianBlur stdDeviation="25"/>
<feColorMatrix type="matrix" values="0 0 0 0 0.209139 0 0 0 0 0.0691446 0 0 0 0 0.478091 0 0 0 0.497159 0"/>
<feBlend mode="normal" in2="BackgroundImageFix" result="effect1_dropShadow_40_3"/>
<feBlend mode="normal" in="SourceGraphic" in2="effect1_dropShadow_40_3" result="shape"/>
</filter>
<linearGradient id="paint0_linear_40_3" x1="255.574" y1="184.731" x2="244.544" y2="217.429" gradientUnits="userSpaceOnUse">
<stop stop-color="#78B46A"/>
<stop offset="0.03" stop-color="#7F3500"/>
<stop offset="1" stop-color="white"/>
</linearGradient>
<linearGradient id="paint1_linear_40_3" x1="183.395" y1="251.665" x2="164.84" y2="310.026" gradientUnits="userSpaceOnUse">
<stop stop-color="#78B46A"/>
<stop offset="0.03" stop-color="#7F3500"/>
<stop offset="1" stop-color="white"/>
</linearGradient>
<linearGradient id="paint2_linear_40_3" x1="137.559" y1="129.19" x2="120.395" y2="168.814" gradientUnits="userSpaceOnUse">
<stop stop-color="#78B46A"/>
<stop offset="0.03" stop-color="#7F3500"/>
<stop offset="1" stop-color="white"/>
</linearGradient>
<linearGradient id="paint3_linear_40_3" x1="378.515" y1="164.64" x2="371.81" y2="147.647" gradientUnits="userSpaceOnUse">
<stop stop-color="white" stop-opacity="0.01"/>
<stop offset="0.99" stop-color="#DC841E"/>
</linearGradient>
<linearGradient id="paint4_linear_40_3" x1="72.4139" y1="187.538" x2="52.8918" y2="245.989" gradientUnits="userSpaceOnUse">
<stop stop-color="#78B46A"/>
<stop offset="0.03" stop-color="#7F3500"/>
<stop offset="1" stop-color="white"/>
</linearGradient>
</defs>
</svg>
